<mxfile host="app.diagrams.net" modified="2023-10-11T07:44:35.202Z" agent="Mozilla/5.0 (X11; Linux x86_64) AppleWebKit/537.36 (KHTML, like Gecko) Chrome/118.0.0.0 Safari/537.36" etag="jf4JoDStMfr6jWu8xMyZ" version="22.0.4" type="device">
  <diagram id="C5RBs43oDa-KdzZeNtuy" name="Page-1">
    <mxGraphModel dx="1974" dy="1707" grid="1" gridSize="10" guides="1" tooltips="1" connect="1" arrows="1" fold="1" page="1" pageScale="1" pageWidth="827" pageHeight="1169" math="0" shadow="0">
      <root>
        <mxCell id="WIyWlLk6GJQsqaUBKTNV-0" />
        <mxCell id="WIyWlLk6GJQsqaUBKTNV-1" parent="WIyWlLk6GJQsqaUBKTNV-0" />
        <mxCell id="WIyWlLk6GJQsqaUBKTNV-2" value="" style="rounded=0;html=1;jettySize=auto;orthogonalLoop=1;fontSize=11;endArrow=block;endFill=0;endSize=8;strokeWidth=1;shadow=0;labelBackgroundColor=none;edgeStyle=orthogonalEdgeStyle;exitX=0.5;exitY=1;exitDx=0;exitDy=0;" parent="WIyWlLk6GJQsqaUBKTNV-1" source="JbZAOQ8Al6Ymb8Nan_qz-92" target="WIyWlLk6GJQsqaUBKTNV-6" edge="1">
          <mxGeometry relative="1" as="geometry">
            <mxPoint x="220" y="90" as="sourcePoint" />
          </mxGeometry>
        </mxCell>
        <mxCell id="JbZAOQ8Al6Ymb8Nan_qz-7" value="PushButton" style="edgeLabel;html=1;align=center;verticalAlign=middle;resizable=0;points=[];" parent="WIyWlLk6GJQsqaUBKTNV-2" vertex="1" connectable="0">
          <mxGeometry x="0.0518" y="-1" relative="1" as="geometry">
            <mxPoint as="offset" />
          </mxGeometry>
        </mxCell>
        <mxCell id="k_VgjvBG-gQ7b5kiwytd-11" style="edgeStyle=orthogonalEdgeStyle;rounded=0;orthogonalLoop=1;jettySize=auto;html=1;" parent="WIyWlLk6GJQsqaUBKTNV-1" source="WIyWlLk6GJQsqaUBKTNV-6" edge="1">
          <mxGeometry relative="1" as="geometry">
            <mxPoint x="354" y="205" as="targetPoint" />
          </mxGeometry>
        </mxCell>
        <mxCell id="JbZAOQ8Al6Ymb8Nan_qz-9" value="False" style="edgeLabel;html=1;align=center;verticalAlign=middle;resizable=0;points=[];" parent="k_VgjvBG-gQ7b5kiwytd-11" vertex="1" connectable="0">
          <mxGeometry x="-0.077" relative="1" as="geometry">
            <mxPoint as="offset" />
          </mxGeometry>
        </mxCell>
        <mxCell id="lYiS7wChmvDQTdlHfNp5-96" style="edgeStyle=orthogonalEdgeStyle;rounded=0;orthogonalLoop=1;jettySize=auto;html=1;" parent="WIyWlLk6GJQsqaUBKTNV-1" source="WIyWlLk6GJQsqaUBKTNV-6" target="lYiS7wChmvDQTdlHfNp5-95" edge="1">
          <mxGeometry relative="1" as="geometry" />
        </mxCell>
        <mxCell id="JbZAOQ8Al6Ymb8Nan_qz-8" value="True" style="edgeLabel;html=1;align=center;verticalAlign=middle;resizable=0;points=[];" parent="lYiS7wChmvDQTdlHfNp5-96" vertex="1" connectable="0">
          <mxGeometry x="-0.7417" y="-2" relative="1" as="geometry">
            <mxPoint as="offset" />
          </mxGeometry>
        </mxCell>
        <mxCell id="WIyWlLk6GJQsqaUBKTNV-6" value="0~9" style="rhombus;whiteSpace=wrap;html=1;shadow=0;fontFamily=Helvetica;fontSize=12;align=center;strokeWidth=1;spacing=6;spacingTop=-4;" parent="WIyWlLk6GJQsqaUBKTNV-1" vertex="1">
          <mxGeometry x="170" y="170" width="100" height="70" as="geometry" />
        </mxCell>
        <mxCell id="WIyWlLk6GJQsqaUBKTNV-12" value="output.clear()" style="rounded=1;whiteSpace=wrap;html=1;fontSize=12;glass=0;strokeWidth=1;shadow=0;" parent="WIyWlLk6GJQsqaUBKTNV-1" vertex="1">
          <mxGeometry x="340" y="283" width="120" height="40" as="geometry" />
        </mxCell>
        <mxCell id="k_VgjvBG-gQ7b5kiwytd-1" value="" style="strokeWidth=2;html=1;shape=mxgraph.flowchart.start_2;whiteSpace=wrap;" parent="WIyWlLk6GJQsqaUBKTNV-1" vertex="1">
          <mxGeometry x="197.5" y="-200" width="45" height="30" as="geometry" />
        </mxCell>
        <mxCell id="k_VgjvBG-gQ7b5kiwytd-16" style="edgeStyle=orthogonalEdgeStyle;rounded=0;orthogonalLoop=1;jettySize=auto;html=1;" parent="WIyWlLk6GJQsqaUBKTNV-1" source="k_VgjvBG-gQ7b5kiwytd-15" target="WIyWlLk6GJQsqaUBKTNV-12" edge="1">
          <mxGeometry relative="1" as="geometry" />
        </mxCell>
        <mxCell id="JbZAOQ8Al6Ymb8Nan_qz-12" value="True" style="edgeLabel;html=1;align=center;verticalAlign=middle;resizable=0;points=[];" parent="k_VgjvBG-gQ7b5kiwytd-16" vertex="1" connectable="0">
          <mxGeometry x="-0.2267" relative="1" as="geometry">
            <mxPoint as="offset" />
          </mxGeometry>
        </mxCell>
        <mxCell id="k_VgjvBG-gQ7b5kiwytd-78" style="edgeStyle=orthogonalEdgeStyle;rounded=0;orthogonalLoop=1;jettySize=auto;html=1;entryX=0;entryY=0.5;entryDx=0;entryDy=0;" parent="WIyWlLk6GJQsqaUBKTNV-1" source="k_VgjvBG-gQ7b5kiwytd-15" target="k_VgjvBG-gQ7b5kiwytd-77" edge="1">
          <mxGeometry relative="1" as="geometry" />
        </mxCell>
        <mxCell id="JbZAOQ8Al6Ymb8Nan_qz-13" value="False" style="edgeLabel;html=1;align=center;verticalAlign=middle;resizable=0;points=[];" parent="k_VgjvBG-gQ7b5kiwytd-78" vertex="1" connectable="0">
          <mxGeometry x="-0.1167" y="3" relative="1" as="geometry">
            <mxPoint as="offset" />
          </mxGeometry>
        </mxCell>
        <mxCell id="k_VgjvBG-gQ7b5kiwytd-15" value="C" style="rhombus;whiteSpace=wrap;html=1;shadow=0;fontFamily=Helvetica;fontSize=12;align=center;strokeWidth=1;spacing=6;spacingTop=-4;" parent="WIyWlLk6GJQsqaUBKTNV-1" vertex="1">
          <mxGeometry x="350" y="170" width="100" height="70" as="geometry" />
        </mxCell>
        <mxCell id="k_VgjvBG-gQ7b5kiwytd-25" style="edgeStyle=orthogonalEdgeStyle;rounded=0;orthogonalLoop=1;jettySize=auto;html=1;entryX=0.5;entryY=0;entryDx=0;entryDy=0;" parent="WIyWlLk6GJQsqaUBKTNV-1" source="k_VgjvBG-gQ7b5kiwytd-18" target="k_VgjvBG-gQ7b5kiwytd-24" edge="1">
          <mxGeometry relative="1" as="geometry" />
        </mxCell>
        <mxCell id="JbZAOQ8Al6Ymb8Nan_qz-16" value="True" style="edgeLabel;html=1;align=center;verticalAlign=middle;resizable=0;points=[];" parent="k_VgjvBG-gQ7b5kiwytd-25" vertex="1" connectable="0">
          <mxGeometry x="-0.199" relative="1" as="geometry">
            <mxPoint as="offset" />
          </mxGeometry>
        </mxCell>
        <mxCell id="k_VgjvBG-gQ7b5kiwytd-30" style="edgeStyle=orthogonalEdgeStyle;rounded=0;orthogonalLoop=1;jettySize=auto;html=1;entryX=0;entryY=0.5;entryDx=0;entryDy=0;" parent="WIyWlLk6GJQsqaUBKTNV-1" target="k_VgjvBG-gQ7b5kiwytd-29" edge="1">
          <mxGeometry relative="1" as="geometry">
            <mxPoint x="836" y="205" as="sourcePoint" />
          </mxGeometry>
        </mxCell>
        <mxCell id="JbZAOQ8Al6Ymb8Nan_qz-26" value="False" style="edgeLabel;html=1;align=center;verticalAlign=middle;resizable=0;points=[];" parent="k_VgjvBG-gQ7b5kiwytd-30" vertex="1" connectable="0">
          <mxGeometry x="0.4584" y="-2" relative="1" as="geometry">
            <mxPoint as="offset" />
          </mxGeometry>
        </mxCell>
        <mxCell id="k_VgjvBG-gQ7b5kiwytd-18" value="%" style="rhombus;whiteSpace=wrap;html=1;shadow=0;fontFamily=Helvetica;fontSize=12;align=center;strokeWidth=1;spacing=6;spacingTop=-4;" parent="WIyWlLk6GJQsqaUBKTNV-1" vertex="1">
          <mxGeometry x="800" y="170" width="100" height="70" as="geometry" />
        </mxCell>
        <mxCell id="k_VgjvBG-gQ7b5kiwytd-35" style="edgeStyle=orthogonalEdgeStyle;rounded=0;orthogonalLoop=1;jettySize=auto;html=1;entryX=0.5;entryY=0;entryDx=0;entryDy=0;" parent="WIyWlLk6GJQsqaUBKTNV-1" source="k_VgjvBG-gQ7b5kiwytd-24" target="k_VgjvBG-gQ7b5kiwytd-34" edge="1">
          <mxGeometry relative="1" as="geometry" />
        </mxCell>
        <mxCell id="k_VgjvBG-gQ7b5kiwytd-24" value="current_txt = read_output()" style="rounded=1;whiteSpace=wrap;html=1;fontSize=12;glass=0;strokeWidth=1;shadow=0;" parent="WIyWlLk6GJQsqaUBKTNV-1" vertex="1">
          <mxGeometry x="750" y="281.5" width="200" height="40" as="geometry" />
        </mxCell>
        <mxCell id="k_VgjvBG-gQ7b5kiwytd-27" value="pass" style="rounded=1;whiteSpace=wrap;html=1;fontSize=12;glass=0;strokeWidth=1;shadow=0;" parent="WIyWlLk6GJQsqaUBKTNV-1" vertex="1">
          <mxGeometry x="735" y="433.5" width="60" height="40" as="geometry" />
        </mxCell>
        <mxCell id="k_VgjvBG-gQ7b5kiwytd-55" style="edgeStyle=orthogonalEdgeStyle;rounded=0;orthogonalLoop=1;jettySize=auto;html=1;entryX=0;entryY=0.5;entryDx=0;entryDy=0;" parent="WIyWlLk6GJQsqaUBKTNV-1" source="k_VgjvBG-gQ7b5kiwytd-29" target="lYiS7wChmvDQTdlHfNp5-9" edge="1">
          <mxGeometry relative="1" as="geometry">
            <mxPoint x="1336.17" y="205" as="targetPoint" />
          </mxGeometry>
        </mxCell>
        <mxCell id="JbZAOQ8Al6Ymb8Nan_qz-27" value="False" style="edgeLabel;html=1;align=center;verticalAlign=middle;resizable=0;points=[];" parent="k_VgjvBG-gQ7b5kiwytd-55" vertex="1" connectable="0">
          <mxGeometry x="0.2365" y="1" relative="1" as="geometry">
            <mxPoint as="offset" />
          </mxGeometry>
        </mxCell>
        <mxCell id="k_VgjvBG-gQ7b5kiwytd-58" style="edgeStyle=orthogonalEdgeStyle;rounded=0;orthogonalLoop=1;jettySize=auto;html=1;entryX=0.5;entryY=0;entryDx=0;entryDy=0;" parent="WIyWlLk6GJQsqaUBKTNV-1" source="k_VgjvBG-gQ7b5kiwytd-29" target="k_VgjvBG-gQ7b5kiwytd-57" edge="1">
          <mxGeometry relative="1" as="geometry" />
        </mxCell>
        <mxCell id="k_VgjvBG-gQ7b5kiwytd-29" value="+/--" style="rhombus;whiteSpace=wrap;html=1;shadow=0;fontFamily=Helvetica;fontSize=12;align=center;strokeWidth=1;spacing=6;spacingTop=-4;" parent="WIyWlLk6GJQsqaUBKTNV-1" vertex="1">
          <mxGeometry x="1209.5" y="170" width="100" height="70" as="geometry" />
        </mxCell>
        <mxCell id="JbZAOQ8Al6Ymb8Nan_qz-19" style="edgeStyle=orthogonalEdgeStyle;rounded=0;orthogonalLoop=1;jettySize=auto;html=1;entryX=0.426;entryY=0.004;entryDx=0;entryDy=0;entryPerimeter=0;" parent="WIyWlLk6GJQsqaUBKTNV-1" source="k_VgjvBG-gQ7b5kiwytd-34" target="k_VgjvBG-gQ7b5kiwytd-27" edge="1">
          <mxGeometry relative="1" as="geometry">
            <mxPoint x="760" y="440" as="targetPoint" />
            <Array as="points">
              <mxPoint x="758" y="400" />
            </Array>
          </mxGeometry>
        </mxCell>
        <mxCell id="JbZAOQ8Al6Ymb8Nan_qz-22" value="True" style="edgeLabel;html=1;align=center;verticalAlign=middle;resizable=0;points=[];" parent="JbZAOQ8Al6Ymb8Nan_qz-19" vertex="1" connectable="0">
          <mxGeometry x="0.1242" y="-3" relative="1" as="geometry">
            <mxPoint as="offset" />
          </mxGeometry>
        </mxCell>
        <mxCell id="k_VgjvBG-gQ7b5kiwytd-34" value="current_txt == &quot;&quot;" style="rhombus;whiteSpace=wrap;html=1;shadow=0;fontFamily=Helvetica;fontSize=12;align=center;strokeWidth=1;spacing=6;spacingTop=-4;" parent="WIyWlLk6GJQsqaUBKTNV-1" vertex="1">
          <mxGeometry x="795" y="363.5" width="110" height="70" as="geometry" />
        </mxCell>
        <mxCell id="k_VgjvBG-gQ7b5kiwytd-68" style="edgeStyle=orthogonalEdgeStyle;rounded=0;orthogonalLoop=1;jettySize=auto;html=1;entryX=0.5;entryY=0;entryDx=0;entryDy=0;" parent="WIyWlLk6GJQsqaUBKTNV-1" source="k_VgjvBG-gQ7b5kiwytd-57" target="k_VgjvBG-gQ7b5kiwytd-67" edge="1">
          <mxGeometry relative="1" as="geometry" />
        </mxCell>
        <mxCell id="k_VgjvBG-gQ7b5kiwytd-57" value="current_txt = read_output()" style="rounded=1;whiteSpace=wrap;html=1;fontSize=12;glass=0;strokeWidth=1;shadow=0;" parent="WIyWlLk6GJQsqaUBKTNV-1" vertex="1">
          <mxGeometry x="1177" y="281.5" width="165" height="40" as="geometry" />
        </mxCell>
        <mxCell id="JbZAOQ8Al6Ymb8Nan_qz-31" style="edgeStyle=orthogonalEdgeStyle;rounded=0;orthogonalLoop=1;jettySize=auto;html=1;" parent="WIyWlLk6GJQsqaUBKTNV-1" source="k_VgjvBG-gQ7b5kiwytd-67" edge="1">
          <mxGeometry relative="1" as="geometry">
            <mxPoint x="1173.33" y="433.5" as="targetPoint" />
            <Array as="points">
              <mxPoint x="1173.33" y="399" />
            </Array>
          </mxGeometry>
        </mxCell>
        <mxCell id="JbZAOQ8Al6Ymb8Nan_qz-32" value="False" style="edgeLabel;html=1;align=center;verticalAlign=middle;resizable=0;points=[];" parent="JbZAOQ8Al6Ymb8Nan_qz-31" vertex="1" connectable="0">
          <mxGeometry x="0.3139" y="1" relative="1" as="geometry">
            <mxPoint as="offset" />
          </mxGeometry>
        </mxCell>
        <mxCell id="k_VgjvBG-gQ7b5kiwytd-67" value="current_txt == &quot;&quot;" style="rhombus;whiteSpace=wrap;html=1;shadow=0;fontFamily=Helvetica;fontSize=12;align=center;strokeWidth=1;spacing=6;spacingTop=-4;" parent="WIyWlLk6GJQsqaUBKTNV-1" vertex="1">
          <mxGeometry x="1204.5" y="363.5" width="110" height="70" as="geometry" />
        </mxCell>
        <mxCell id="k_VgjvBG-gQ7b5kiwytd-73" value="output_show(&quot;-&quot;)" style="whiteSpace=wrap;html=1;rounded=1;glass=0;strokeWidth=1;shadow=0;" parent="WIyWlLk6GJQsqaUBKTNV-1" vertex="1">
          <mxGeometry x="1289.5" y="433.5" width="103.83" height="40" as="geometry" />
        </mxCell>
        <mxCell id="k_VgjvBG-gQ7b5kiwytd-81" style="edgeStyle=orthogonalEdgeStyle;rounded=0;orthogonalLoop=1;jettySize=auto;html=1;entryX=0.5;entryY=0;entryDx=0;entryDy=0;" parent="WIyWlLk6GJQsqaUBKTNV-1" source="k_VgjvBG-gQ7b5kiwytd-77" target="k_VgjvBG-gQ7b5kiwytd-80" edge="1">
          <mxGeometry relative="1" as="geometry" />
        </mxCell>
        <mxCell id="JbZAOQ8Al6Ymb8Nan_qz-14" value="True" style="edgeLabel;html=1;align=center;verticalAlign=middle;resizable=0;points=[];" parent="k_VgjvBG-gQ7b5kiwytd-81" vertex="1" connectable="0">
          <mxGeometry x="-0.325" y="4" relative="1" as="geometry">
            <mxPoint as="offset" />
          </mxGeometry>
        </mxCell>
        <mxCell id="k_VgjvBG-gQ7b5kiwytd-90" style="edgeStyle=orthogonalEdgeStyle;rounded=0;orthogonalLoop=1;jettySize=auto;html=1;entryX=0;entryY=0.5;entryDx=0;entryDy=0;" parent="WIyWlLk6GJQsqaUBKTNV-1" source="k_VgjvBG-gQ7b5kiwytd-77" target="k_VgjvBG-gQ7b5kiwytd-18" edge="1">
          <mxGeometry relative="1" as="geometry" />
        </mxCell>
        <mxCell id="JbZAOQ8Al6Ymb8Nan_qz-15" value="False" style="edgeLabel;html=1;align=center;verticalAlign=middle;resizable=0;points=[];" parent="k_VgjvBG-gQ7b5kiwytd-90" vertex="1" connectable="0">
          <mxGeometry x="-0.5018" y="1" relative="1" as="geometry">
            <mxPoint as="offset" />
          </mxGeometry>
        </mxCell>
        <mxCell id="k_VgjvBG-gQ7b5kiwytd-77" value="=" style="rhombus;whiteSpace=wrap;html=1;shadow=0;fontFamily=Helvetica;fontSize=12;align=center;strokeWidth=1;spacing=6;spacingTop=-4;" parent="WIyWlLk6GJQsqaUBKTNV-1" vertex="1">
          <mxGeometry x="510" y="170" width="100" height="70" as="geometry" />
        </mxCell>
        <mxCell id="JbZAOQ8Al6Ymb8Nan_qz-0" style="edgeStyle=orthogonalEdgeStyle;rounded=0;orthogonalLoop=1;jettySize=auto;html=1;" parent="WIyWlLk6GJQsqaUBKTNV-1" source="k_VgjvBG-gQ7b5kiwytd-80" edge="1">
          <mxGeometry relative="1" as="geometry">
            <mxPoint x="560" y="360" as="targetPoint" />
          </mxGeometry>
        </mxCell>
        <mxCell id="k_VgjvBG-gQ7b5kiwytd-80" value="pre_output_show(read_output)" style="rounded=1;whiteSpace=wrap;html=1;fontSize=12;glass=0;strokeWidth=1;shadow=0;" parent="WIyWlLk6GJQsqaUBKTNV-1" vertex="1">
          <mxGeometry x="470" y="280" width="180" height="43" as="geometry" />
        </mxCell>
        <mxCell id="JbZAOQ8Al6Ymb8Nan_qz-130" style="edgeStyle=orthogonalEdgeStyle;rounded=0;orthogonalLoop=1;jettySize=auto;html=1;" parent="WIyWlLk6GJQsqaUBKTNV-1" source="k_VgjvBG-gQ7b5kiwytd-84" edge="1">
          <mxGeometry relative="1" as="geometry">
            <mxPoint x="474" y="590" as="targetPoint" />
          </mxGeometry>
        </mxCell>
        <mxCell id="JbZAOQ8Al6Ymb8Nan_qz-145" style="edgeStyle=orthogonalEdgeStyle;rounded=0;orthogonalLoop=1;jettySize=auto;html=1;" parent="WIyWlLk6GJQsqaUBKTNV-1" source="k_VgjvBG-gQ7b5kiwytd-84" edge="1">
          <mxGeometry relative="1" as="geometry">
            <mxPoint x="210" y="590" as="targetPoint" />
          </mxGeometry>
        </mxCell>
        <mxCell id="k_VgjvBG-gQ7b5kiwytd-84" value="calculate()" style="rounded=1;whiteSpace=wrap;html=1;fontSize=12;glass=0;strokeWidth=1;shadow=0;" parent="WIyWlLk6GJQsqaUBKTNV-1" vertex="1">
          <mxGeometry x="414" y="497" width="120" height="43" as="geometry" />
        </mxCell>
        <mxCell id="JbZAOQ8Al6Ymb8Nan_qz-136" style="edgeStyle=orthogonalEdgeStyle;rounded=0;orthogonalLoop=1;jettySize=auto;html=1;entryX=0.5;entryY=0;entryDx=0;entryDy=0;" parent="WIyWlLk6GJQsqaUBKTNV-1" source="k_VgjvBG-gQ7b5kiwytd-88" target="k_VgjvBG-gQ7b5kiwytd-84" edge="1">
          <mxGeometry relative="1" as="geometry" />
        </mxCell>
        <mxCell id="k_VgjvBG-gQ7b5kiwytd-88" value="output.clear()" style="rounded=1;whiteSpace=wrap;html=1;fontSize=12;glass=0;strokeWidth=1;shadow=0;" parent="WIyWlLk6GJQsqaUBKTNV-1" vertex="1">
          <mxGeometry x="414" y="430" width="120" height="40" as="geometry" />
        </mxCell>
        <mxCell id="JbZAOQ8Al6Ymb8Nan_qz-25" style="edgeStyle=orthogonalEdgeStyle;rounded=0;orthogonalLoop=1;jettySize=auto;html=1;" parent="WIyWlLk6GJQsqaUBKTNV-1" source="lYiS7wChmvDQTdlHfNp5-5" target="JbZAOQ8Al6Ymb8Nan_qz-24" edge="1">
          <mxGeometry relative="1" as="geometry" />
        </mxCell>
        <mxCell id="lYiS7wChmvDQTdlHfNp5-5" value="new_txt = current_txt + &#39;%&#39;" style="rounded=1;whiteSpace=wrap;html=1;fontSize=12;glass=0;strokeWidth=1;shadow=0;" parent="WIyWlLk6GJQsqaUBKTNV-1" vertex="1">
          <mxGeometry x="860" y="450" width="150" height="40" as="geometry" />
        </mxCell>
        <mxCell id="lYiS7wChmvDQTdlHfNp5-11" style="edgeStyle=orthogonalEdgeStyle;rounded=0;orthogonalLoop=1;jettySize=auto;html=1;" parent="WIyWlLk6GJQsqaUBKTNV-1" source="lYiS7wChmvDQTdlHfNp5-9" target="lYiS7wChmvDQTdlHfNp5-12" edge="1">
          <mxGeometry relative="1" as="geometry">
            <mxPoint x="1435.17" y="300" as="targetPoint" />
          </mxGeometry>
        </mxCell>
        <mxCell id="lYiS7wChmvDQTdlHfNp5-39" style="edgeStyle=orthogonalEdgeStyle;rounded=0;orthogonalLoop=1;jettySize=auto;html=1;" parent="WIyWlLk6GJQsqaUBKTNV-1" source="lYiS7wChmvDQTdlHfNp5-9" target="lYiS7wChmvDQTdlHfNp5-41" edge="1">
          <mxGeometry relative="1" as="geometry">
            <mxPoint x="1676.17" y="205" as="targetPoint" />
          </mxGeometry>
        </mxCell>
        <mxCell id="JbZAOQ8Al6Ymb8Nan_qz-67" value="False" style="edgeLabel;html=1;align=center;verticalAlign=middle;resizable=0;points=[];" parent="lYiS7wChmvDQTdlHfNp5-39" vertex="1" connectable="0">
          <mxGeometry x="0.0902" y="-1" relative="1" as="geometry">
            <mxPoint as="offset" />
          </mxGeometry>
        </mxCell>
        <mxCell id="lYiS7wChmvDQTdlHfNp5-9" value="." style="rhombus;whiteSpace=wrap;html=1;shadow=0;fontFamily=Helvetica;fontSize=12;align=center;strokeWidth=1;spacing=6;spacingTop=-4;" parent="WIyWlLk6GJQsqaUBKTNV-1" vertex="1">
          <mxGeometry x="1580" y="170" width="100" height="70" as="geometry" />
        </mxCell>
        <mxCell id="JbZAOQ8Al6Ymb8Nan_qz-45" style="edgeStyle=orthogonalEdgeStyle;rounded=0;orthogonalLoop=1;jettySize=auto;html=1;" parent="WIyWlLk6GJQsqaUBKTNV-1" source="lYiS7wChmvDQTdlHfNp5-12" edge="1">
          <mxGeometry relative="1" as="geometry">
            <mxPoint x="1630" y="359.9999999999998" as="targetPoint" />
          </mxGeometry>
        </mxCell>
        <mxCell id="lYiS7wChmvDQTdlHfNp5-12" value="current_txt = read_output()" style="rounded=1;whiteSpace=wrap;html=1;fontSize=12;glass=0;strokeWidth=1;shadow=0;" parent="WIyWlLk6GJQsqaUBKTNV-1" vertex="1">
          <mxGeometry x="1545" y="281.5" width="170" height="40" as="geometry" />
        </mxCell>
        <mxCell id="JbZAOQ8Al6Ymb8Nan_qz-68" style="edgeStyle=orthogonalEdgeStyle;rounded=0;orthogonalLoop=1;jettySize=auto;html=1;" parent="WIyWlLk6GJQsqaUBKTNV-1" source="lYiS7wChmvDQTdlHfNp5-41" edge="1">
          <mxGeometry relative="1" as="geometry">
            <mxPoint x="2118" y="270" as="targetPoint" />
          </mxGeometry>
        </mxCell>
        <mxCell id="JbZAOQ8Al6Ymb8Nan_qz-82" style="edgeStyle=orthogonalEdgeStyle;rounded=0;orthogonalLoop=1;jettySize=auto;html=1;entryX=0;entryY=0.5;entryDx=0;entryDy=0;" parent="WIyWlLk6GJQsqaUBKTNV-1" source="lYiS7wChmvDQTdlHfNp5-41" target="lYiS7wChmvDQTdlHfNp5-65" edge="1">
          <mxGeometry relative="1" as="geometry" />
        </mxCell>
        <mxCell id="JbZAOQ8Al6Ymb8Nan_qz-83" value="False" style="edgeLabel;html=1;align=center;verticalAlign=middle;resizable=0;points=[];" parent="JbZAOQ8Al6Ymb8Nan_qz-82" vertex="1" connectable="0">
          <mxGeometry x="-0.2768" y="1" relative="1" as="geometry">
            <mxPoint as="offset" />
          </mxGeometry>
        </mxCell>
        <mxCell id="lYiS7wChmvDQTdlHfNp5-41" value="+,----, X, /" style="rhombus;whiteSpace=wrap;html=1;shadow=0;fontFamily=Helvetica;fontSize=12;align=center;strokeWidth=1;spacing=6;spacingTop=-4;" parent="WIyWlLk6GJQsqaUBKTNV-1" vertex="1">
          <mxGeometry x="2068" y="170" width="100" height="70" as="geometry" />
        </mxCell>
        <mxCell id="lYiS7wChmvDQTdlHfNp5-92" style="edgeStyle=orthogonalEdgeStyle;rounded=0;orthogonalLoop=1;jettySize=auto;html=1;" parent="WIyWlLk6GJQsqaUBKTNV-1" source="lYiS7wChmvDQTdlHfNp5-65" target="lYiS7wChmvDQTdlHfNp5-87" edge="1">
          <mxGeometry relative="1" as="geometry" />
        </mxCell>
        <mxCell id="JbZAOQ8Al6Ymb8Nan_qz-86" style="edgeStyle=orthogonalEdgeStyle;rounded=0;orthogonalLoop=1;jettySize=auto;html=1;" parent="WIyWlLk6GJQsqaUBKTNV-1" source="lYiS7wChmvDQTdlHfNp5-65" target="JbZAOQ8Al6Ymb8Nan_qz-85" edge="1">
          <mxGeometry relative="1" as="geometry" />
        </mxCell>
        <mxCell id="lYiS7wChmvDQTdlHfNp5-65" value="&amp;lt;---" style="rhombus;whiteSpace=wrap;html=1;shadow=0;fontFamily=Helvetica;fontSize=12;align=center;strokeWidth=1;spacing=6;spacingTop=-4;" parent="WIyWlLk6GJQsqaUBKTNV-1" vertex="1">
          <mxGeometry x="2465" y="170" width="100" height="70" as="geometry" />
        </mxCell>
        <mxCell id="JbZAOQ8Al6Ymb8Nan_qz-93" style="edgeStyle=orthogonalEdgeStyle;rounded=0;orthogonalLoop=1;jettySize=auto;html=1;" parent="WIyWlLk6GJQsqaUBKTNV-1" source="lYiS7wChmvDQTdlHfNp5-87" edge="1">
          <mxGeometry relative="1" as="geometry">
            <mxPoint x="2920" y="270.0000000000002" as="targetPoint" />
          </mxGeometry>
        </mxCell>
        <mxCell id="lYiS7wChmvDQTdlHfNp5-87" value="()" style="rhombus;whiteSpace=wrap;html=1;shadow=0;fontFamily=Helvetica;fontSize=12;align=center;strokeWidth=1;spacing=6;spacingTop=-4;" parent="WIyWlLk6GJQsqaUBKTNV-1" vertex="1">
          <mxGeometry x="2870" y="170" width="100" height="70" as="geometry" />
        </mxCell>
        <mxCell id="lYiS7wChmvDQTdlHfNp5-101" style="edgeStyle=orthogonalEdgeStyle;rounded=0;orthogonalLoop=1;jettySize=auto;html=1;" parent="WIyWlLk6GJQsqaUBKTNV-1" source="lYiS7wChmvDQTdlHfNp5-95" edge="1">
          <mxGeometry relative="1" as="geometry">
            <mxPoint x="220" y="360" as="targetPoint" />
          </mxGeometry>
        </mxCell>
        <mxCell id="lYiS7wChmvDQTdlHfNp5-95" value="current_txt = read_output()" style="rounded=1;whiteSpace=wrap;html=1;fontSize=12;glass=0;strokeWidth=1;shadow=0;" parent="WIyWlLk6GJQsqaUBKTNV-1" vertex="1">
          <mxGeometry x="135" y="280" width="170" height="43" as="geometry" />
        </mxCell>
        <mxCell id="JbZAOQ8Al6Ymb8Nan_qz-10" style="edgeStyle=orthogonalEdgeStyle;rounded=0;orthogonalLoop=1;jettySize=auto;html=1;" parent="WIyWlLk6GJQsqaUBKTNV-1" source="lYiS7wChmvDQTdlHfNp5-102" edge="1">
          <mxGeometry relative="1" as="geometry">
            <mxPoint x="220" y="440" as="targetPoint" />
          </mxGeometry>
        </mxCell>
        <mxCell id="lYiS7wChmvDQTdlHfNp5-102" value="new_txt =&amp;nbsp; current_txt + 0~9" style="rounded=1;whiteSpace=wrap;html=1;fontSize=12;glass=0;strokeWidth=1;shadow=0;" parent="WIyWlLk6GJQsqaUBKTNV-1" vertex="1">
          <mxGeometry x="135" y="360.5" width="170" height="43" as="geometry" />
        </mxCell>
        <mxCell id="JbZAOQ8Al6Ymb8Nan_qz-91" style="edgeStyle=orthogonalEdgeStyle;rounded=0;orthogonalLoop=1;jettySize=auto;html=1;" parent="WIyWlLk6GJQsqaUBKTNV-1" source="JbZAOQ8Al6Ymb8Nan_qz-5" edge="1">
          <mxGeometry relative="1" as="geometry">
            <mxPoint x="220.00000000000023" y="30" as="targetPoint" />
          </mxGeometry>
        </mxCell>
        <mxCell id="JbZAOQ8Al6Ymb8Nan_qz-5" value="&lt;div style=&quot;color: rgb(59, 59, 59); background-color: rgb(255, 255, 255); font-family: &amp;quot;Droid Sans Mono&amp;quot;, &amp;quot;monospace&amp;quot;, monospace; font-size: 14px; line-height: 19px;&quot;&gt;operator &lt;span style=&quot;color: #000000;&quot;&gt;=&lt;/span&gt;[&lt;span style=&quot;color: #a31515;&quot;&gt;&quot;+&quot;&lt;/span&gt;, &lt;span style=&quot;color: #a31515;&quot;&gt;&quot;-&quot;&lt;/span&gt;, &lt;span style=&quot;color: #a31515;&quot;&gt;&quot;*&quot;&lt;/span&gt;, &lt;span style=&quot;color: #a31515;&quot;&gt;&quot;/&quot;&lt;/span&gt;]&lt;/div&gt;" style="strokeWidth=2;html=1;shape=mxgraph.flowchart.database;whiteSpace=wrap;" parent="WIyWlLk6GJQsqaUBKTNV-1" vertex="1">
          <mxGeometry x="85" y="-120" width="270" height="80" as="geometry" />
        </mxCell>
        <mxCell id="JbZAOQ8Al6Ymb8Nan_qz-6" style="edgeStyle=orthogonalEdgeStyle;rounded=0;orthogonalLoop=1;jettySize=auto;html=1;entryX=0.5;entryY=0;entryDx=0;entryDy=0;entryPerimeter=0;" parent="WIyWlLk6GJQsqaUBKTNV-1" source="k_VgjvBG-gQ7b5kiwytd-1" target="JbZAOQ8Al6Ymb8Nan_qz-5" edge="1">
          <mxGeometry relative="1" as="geometry" />
        </mxCell>
        <mxCell id="JbZAOQ8Al6Ymb8Nan_qz-11" value="output_show(new_txt)" style="rounded=1;whiteSpace=wrap;html=1;fontSize=12;glass=0;strokeWidth=1;shadow=0;" parent="WIyWlLk6GJQsqaUBKTNV-1" vertex="1">
          <mxGeometry x="135" y="440" width="175" height="43" as="geometry" />
        </mxCell>
        <mxCell id="JbZAOQ8Al6Ymb8Nan_qz-20" style="edgeStyle=orthogonalEdgeStyle;rounded=0;orthogonalLoop=1;jettySize=auto;html=1;" parent="WIyWlLk6GJQsqaUBKTNV-1" target="lYiS7wChmvDQTdlHfNp5-5" edge="1">
          <mxGeometry relative="1" as="geometry">
            <mxPoint x="904.6428571428569" y="399.0000000000002" as="sourcePoint" />
            <mxPoint x="970.1799999999998" y="449.99999999999955" as="targetPoint" />
            <Array as="points">
              <mxPoint x="940" y="399" />
            </Array>
          </mxGeometry>
        </mxCell>
        <mxCell id="JbZAOQ8Al6Ymb8Nan_qz-21" value="False" style="edgeLabel;html=1;align=center;verticalAlign=middle;resizable=0;points=[];" parent="JbZAOQ8Al6Ymb8Nan_qz-20" vertex="1" connectable="0">
          <mxGeometry x="0.2877" y="4" relative="1" as="geometry">
            <mxPoint as="offset" />
          </mxGeometry>
        </mxCell>
        <mxCell id="JbZAOQ8Al6Ymb8Nan_qz-24" value="output_show(new_txt)" style="rounded=1;whiteSpace=wrap;html=1;fontSize=12;glass=0;strokeWidth=1;shadow=0;" parent="WIyWlLk6GJQsqaUBKTNV-1" vertex="1">
          <mxGeometry x="875" y="530" width="120" height="43" as="geometry" />
        </mxCell>
        <mxCell id="JbZAOQ8Al6Ymb8Nan_qz-28" style="edgeStyle=orthogonalEdgeStyle;rounded=0;orthogonalLoop=1;jettySize=auto;html=1;entryX=0.637;entryY=0.042;entryDx=0;entryDy=0;entryPerimeter=0;" parent="WIyWlLk6GJQsqaUBKTNV-1" source="k_VgjvBG-gQ7b5kiwytd-67" target="k_VgjvBG-gQ7b5kiwytd-73" edge="1">
          <mxGeometry relative="1" as="geometry">
            <Array as="points">
              <mxPoint x="1334.33" y="399" />
              <mxPoint x="1355.33" y="399" />
            </Array>
          </mxGeometry>
        </mxCell>
        <mxCell id="JbZAOQ8Al6Ymb8Nan_qz-29" value="True" style="edgeLabel;html=1;align=center;verticalAlign=middle;resizable=0;points=[];" parent="JbZAOQ8Al6Ymb8Nan_qz-28" vertex="1" connectable="0">
          <mxGeometry x="0.1809" relative="1" as="geometry">
            <mxPoint as="offset" />
          </mxGeometry>
        </mxCell>
        <mxCell id="JbZAOQ8Al6Ymb8Nan_qz-34" style="edgeStyle=orthogonalEdgeStyle;rounded=0;orthogonalLoop=1;jettySize=auto;html=1;" parent="WIyWlLk6GJQsqaUBKTNV-1" source="JbZAOQ8Al6Ymb8Nan_qz-33" edge="1">
          <mxGeometry relative="1" as="geometry">
            <mxPoint x="1274.33" y="510" as="targetPoint" />
          </mxGeometry>
        </mxCell>
        <mxCell id="JbZAOQ8Al6Ymb8Nan_qz-36" value="True" style="edgeLabel;html=1;align=center;verticalAlign=middle;resizable=0;points=[];" parent="JbZAOQ8Al6Ymb8Nan_qz-34" vertex="1" connectable="0">
          <mxGeometry x="-0.4866" y="1" relative="1" as="geometry">
            <mxPoint as="offset" />
          </mxGeometry>
        </mxCell>
        <mxCell id="JbZAOQ8Al6Ymb8Nan_qz-37" style="edgeStyle=orthogonalEdgeStyle;rounded=0;orthogonalLoop=1;jettySize=auto;html=1;" parent="WIyWlLk6GJQsqaUBKTNV-1" source="JbZAOQ8Al6Ymb8Nan_qz-33" edge="1">
          <mxGeometry relative="1" as="geometry">
            <mxPoint x="1094.33" y="510" as="targetPoint" />
          </mxGeometry>
        </mxCell>
        <mxCell id="JbZAOQ8Al6Ymb8Nan_qz-38" value="False" style="edgeLabel;html=1;align=center;verticalAlign=middle;resizable=0;points=[];" parent="JbZAOQ8Al6Ymb8Nan_qz-37" vertex="1" connectable="0">
          <mxGeometry x="-0.1142" y="-1" relative="1" as="geometry">
            <mxPoint as="offset" />
          </mxGeometry>
        </mxCell>
        <mxCell id="JbZAOQ8Al6Ymb8Nan_qz-33" value="current_txt == &quot;-&quot;" style="rhombus;whiteSpace=wrap;html=1;shadow=0;fontFamily=Helvetica;fontSize=12;align=center;strokeWidth=1;spacing=6;spacingTop=-4;" parent="WIyWlLk6GJQsqaUBKTNV-1" vertex="1">
          <mxGeometry x="1123.33" y="435" width="111" height="70" as="geometry" />
        </mxCell>
        <mxCell id="JbZAOQ8Al6Ymb8Nan_qz-35" value="pass" style="whiteSpace=wrap;html=1;rounded=1;glass=0;strokeWidth=1;shadow=0;" parent="WIyWlLk6GJQsqaUBKTNV-1" vertex="1">
          <mxGeometry x="1224.33" y="510" width="103.83" height="40" as="geometry" />
        </mxCell>
        <mxCell id="JbZAOQ8Al6Ymb8Nan_qz-40" style="edgeStyle=orthogonalEdgeStyle;rounded=0;orthogonalLoop=1;jettySize=auto;html=1;" parent="WIyWlLk6GJQsqaUBKTNV-1" source="JbZAOQ8Al6Ymb8Nan_qz-39" edge="1">
          <mxGeometry relative="1" as="geometry">
            <mxPoint x="1124.5" y="590" as="targetPoint" />
          </mxGeometry>
        </mxCell>
        <mxCell id="JbZAOQ8Al6Ymb8Nan_qz-39" value="new_txt = &#39;-1*&#39; + current_txt" style="whiteSpace=wrap;html=1;rounded=1;glass=0;strokeWidth=1;shadow=0;" parent="WIyWlLk6GJQsqaUBKTNV-1" vertex="1">
          <mxGeometry x="1044.5" y="510" width="160" height="40" as="geometry" />
        </mxCell>
        <mxCell id="JbZAOQ8Al6Ymb8Nan_qz-42" style="edgeStyle=orthogonalEdgeStyle;rounded=0;orthogonalLoop=1;jettySize=auto;html=1;" parent="WIyWlLk6GJQsqaUBKTNV-1" source="JbZAOQ8Al6Ymb8Nan_qz-41" edge="1">
          <mxGeometry relative="1" as="geometry">
            <mxPoint x="1124.5" y="680" as="targetPoint" />
          </mxGeometry>
        </mxCell>
        <mxCell id="JbZAOQ8Al6Ymb8Nan_qz-43" value="conversion_txt" style="edgeLabel;html=1;align=center;verticalAlign=middle;resizable=0;points=[];" parent="JbZAOQ8Al6Ymb8Nan_qz-42" vertex="1" connectable="0">
          <mxGeometry x="-0.1024" y="1" relative="1" as="geometry">
            <mxPoint as="offset" />
          </mxGeometry>
        </mxCell>
        <mxCell id="JbZAOQ8Al6Ymb8Nan_qz-41" value="&amp;nbsp;calculate(new_txt)" style="whiteSpace=wrap;html=1;rounded=1;glass=0;strokeWidth=1;shadow=0;" parent="WIyWlLk6GJQsqaUBKTNV-1" vertex="1">
          <mxGeometry x="1059.5" y="590" width="130" height="40" as="geometry" />
        </mxCell>
        <mxCell id="JbZAOQ8Al6Ymb8Nan_qz-44" value="&amp;nbsp;output_show(conversion_txt)" style="whiteSpace=wrap;html=1;rounded=1;glass=0;strokeWidth=1;shadow=0;" parent="WIyWlLk6GJQsqaUBKTNV-1" vertex="1">
          <mxGeometry x="1044.33" y="680" width="170" height="40" as="geometry" />
        </mxCell>
        <mxCell id="JbZAOQ8Al6Ymb8Nan_qz-47" style="edgeStyle=orthogonalEdgeStyle;rounded=0;orthogonalLoop=1;jettySize=auto;html=1;" parent="WIyWlLk6GJQsqaUBKTNV-1" source="JbZAOQ8Al6Ymb8Nan_qz-46" edge="1">
          <mxGeometry relative="1" as="geometry">
            <mxPoint x="1630" y="480" as="targetPoint" />
          </mxGeometry>
        </mxCell>
        <mxCell id="JbZAOQ8Al6Ymb8Nan_qz-46" value="add_count = current_txt.count(&#39;+&#39;)&lt;br&gt;sub_count = current_txt.count(&#39;-&#39;)&lt;br&gt;mul_count = current_txt.count(&#39;*&#39;)&lt;br&gt;div_count = current_txt.count(&#39;/&#39;)" style="rounded=1;whiteSpace=wrap;html=1;fontSize=12;glass=0;strokeWidth=1;shadow=0;" parent="WIyWlLk6GJQsqaUBKTNV-1" vertex="1">
          <mxGeometry x="1522.5" y="360.5" width="215" height="89.5" as="geometry" />
        </mxCell>
        <mxCell id="JbZAOQ8Al6Ymb8Nan_qz-49" style="edgeStyle=orthogonalEdgeStyle;rounded=0;orthogonalLoop=1;jettySize=auto;html=1;" parent="WIyWlLk6GJQsqaUBKTNV-1" source="JbZAOQ8Al6Ymb8Nan_qz-48" edge="1">
          <mxGeometry relative="1" as="geometry">
            <mxPoint x="1630" y="580" as="targetPoint" />
          </mxGeometry>
        </mxCell>
        <mxCell id="JbZAOQ8Al6Ymb8Nan_qz-48" value="operator_count = add_count + sub_count + mul_count + div_count&lt;br&gt;point_count = current_txt.count(&#39;.&#39;)" style="rounded=1;whiteSpace=wrap;html=1;fontSize=12;glass=0;strokeWidth=1;shadow=0;" parent="WIyWlLk6GJQsqaUBKTNV-1" vertex="1">
          <mxGeometry x="1445" y="483" width="370" height="57" as="geometry" />
        </mxCell>
        <mxCell id="JbZAOQ8Al6Ymb8Nan_qz-51" style="edgeStyle=orthogonalEdgeStyle;rounded=0;orthogonalLoop=1;jettySize=auto;html=1;" parent="WIyWlLk6GJQsqaUBKTNV-1" source="JbZAOQ8Al6Ymb8Nan_qz-50" edge="1">
          <mxGeometry relative="1" as="geometry">
            <mxPoint x="1800" y="700" as="targetPoint" />
          </mxGeometry>
        </mxCell>
        <mxCell id="JbZAOQ8Al6Ymb8Nan_qz-52" value="False" style="edgeLabel;html=1;align=center;verticalAlign=middle;resizable=0;points=[];" parent="JbZAOQ8Al6Ymb8Nan_qz-51" vertex="1" connectable="0">
          <mxGeometry x="-0.0997" y="-2" relative="1" as="geometry">
            <mxPoint as="offset" />
          </mxGeometry>
        </mxCell>
        <mxCell id="JbZAOQ8Al6Ymb8Nan_qz-53" style="edgeStyle=orthogonalEdgeStyle;rounded=0;orthogonalLoop=1;jettySize=auto;html=1;" parent="WIyWlLk6GJQsqaUBKTNV-1" source="JbZAOQ8Al6Ymb8Nan_qz-50" edge="1">
          <mxGeometry relative="1" as="geometry">
            <mxPoint x="1450" y="700" as="targetPoint" />
          </mxGeometry>
        </mxCell>
        <mxCell id="JbZAOQ8Al6Ymb8Nan_qz-54" value="True" style="edgeLabel;html=1;align=center;verticalAlign=middle;resizable=0;points=[];" parent="JbZAOQ8Al6Ymb8Nan_qz-53" vertex="1" connectable="0">
          <mxGeometry x="0.4195" y="3" relative="1" as="geometry">
            <mxPoint as="offset" />
          </mxGeometry>
        </mxCell>
        <mxCell id="JbZAOQ8Al6Ymb8Nan_qz-50" value="current_txt == &quot;&quot;&lt;br&gt;or&lt;br&gt;current_txt[-1] in operator" style="rhombus;whiteSpace=wrap;html=1;shadow=0;fontFamily=Helvetica;fontSize=12;align=center;strokeWidth=1;spacing=6;spacingTop=-4;" parent="WIyWlLk6GJQsqaUBKTNV-1" vertex="1">
          <mxGeometry x="1495" y="585" width="270" height="105" as="geometry" />
        </mxCell>
        <mxCell id="JbZAOQ8Al6Ymb8Nan_qz-59" style="edgeStyle=orthogonalEdgeStyle;rounded=0;orthogonalLoop=1;jettySize=auto;html=1;" parent="WIyWlLk6GJQsqaUBKTNV-1" source="JbZAOQ8Al6Ymb8Nan_qz-55" edge="1">
          <mxGeometry relative="1" as="geometry">
            <mxPoint x="1930" y="800" as="targetPoint" />
          </mxGeometry>
        </mxCell>
        <mxCell id="JbZAOQ8Al6Ymb8Nan_qz-61" value="False" style="edgeLabel;html=1;align=center;verticalAlign=middle;resizable=0;points=[];" parent="JbZAOQ8Al6Ymb8Nan_qz-59" vertex="1" connectable="0">
          <mxGeometry x="0.2536" y="3" relative="1" as="geometry">
            <mxPoint as="offset" />
          </mxGeometry>
        </mxCell>
        <mxCell id="JbZAOQ8Al6Ymb8Nan_qz-60" style="edgeStyle=orthogonalEdgeStyle;rounded=0;orthogonalLoop=1;jettySize=auto;html=1;" parent="WIyWlLk6GJQsqaUBKTNV-1" source="JbZAOQ8Al6Ymb8Nan_qz-55" edge="1">
          <mxGeometry relative="1" as="geometry">
            <mxPoint x="1670" y="800" as="targetPoint" />
          </mxGeometry>
        </mxCell>
        <mxCell id="JbZAOQ8Al6Ymb8Nan_qz-66" value="True" style="edgeLabel;html=1;align=center;verticalAlign=middle;resizable=0;points=[];" parent="JbZAOQ8Al6Ymb8Nan_qz-60" vertex="1" connectable="0">
          <mxGeometry x="0.0299" y="1" relative="1" as="geometry">
            <mxPoint as="offset" />
          </mxGeometry>
        </mxCell>
        <mxCell id="JbZAOQ8Al6Ymb8Nan_qz-55" value="point_count &amp;lt;= operator_count" style="rhombus;whiteSpace=wrap;html=1;shadow=0;fontFamily=Helvetica;fontSize=12;align=center;strokeWidth=1;spacing=6;spacingTop=-4;" parent="WIyWlLk6GJQsqaUBKTNV-1" vertex="1">
          <mxGeometry x="1702" y="700" width="195" height="80" as="geometry" />
        </mxCell>
        <mxCell id="JbZAOQ8Al6Ymb8Nan_qz-57" style="edgeStyle=orthogonalEdgeStyle;rounded=0;orthogonalLoop=1;jettySize=auto;html=1;" parent="WIyWlLk6GJQsqaUBKTNV-1" source="JbZAOQ8Al6Ymb8Nan_qz-56" edge="1">
          <mxGeometry relative="1" as="geometry">
            <mxPoint x="1450" y="780" as="targetPoint" />
          </mxGeometry>
        </mxCell>
        <mxCell id="JbZAOQ8Al6Ymb8Nan_qz-56" value="new_txt = current_txt + &#39;0.&#39;" style="rounded=1;whiteSpace=wrap;html=1;fontSize=12;glass=0;strokeWidth=1;shadow=0;" parent="WIyWlLk6GJQsqaUBKTNV-1" vertex="1">
          <mxGeometry x="1360" y="700" width="180" height="40" as="geometry" />
        </mxCell>
        <mxCell id="JbZAOQ8Al6Ymb8Nan_qz-58" value="output_show(new_txt)" style="rounded=1;whiteSpace=wrap;html=1;fontSize=12;glass=0;strokeWidth=1;shadow=0;" parent="WIyWlLk6GJQsqaUBKTNV-1" vertex="1">
          <mxGeometry x="1360" y="780" width="180" height="40" as="geometry" />
        </mxCell>
        <mxCell id="JbZAOQ8Al6Ymb8Nan_qz-62" value="pass" style="rounded=1;whiteSpace=wrap;html=1;fontSize=12;glass=0;strokeWidth=1;shadow=0;" parent="WIyWlLk6GJQsqaUBKTNV-1" vertex="1">
          <mxGeometry x="1890" y="800" width="90" height="40" as="geometry" />
        </mxCell>
        <mxCell id="JbZAOQ8Al6Ymb8Nan_qz-65" style="edgeStyle=orthogonalEdgeStyle;rounded=0;orthogonalLoop=1;jettySize=auto;html=1;" parent="WIyWlLk6GJQsqaUBKTNV-1" source="JbZAOQ8Al6Ymb8Nan_qz-63" target="JbZAOQ8Al6Ymb8Nan_qz-64" edge="1">
          <mxGeometry relative="1" as="geometry" />
        </mxCell>
        <mxCell id="JbZAOQ8Al6Ymb8Nan_qz-63" value="new_txt = current_txt + &#39;.&#39;" style="rounded=1;whiteSpace=wrap;html=1;fontSize=12;glass=0;strokeWidth=1;shadow=0;" parent="WIyWlLk6GJQsqaUBKTNV-1" vertex="1">
          <mxGeometry x="1580" y="800" width="180" height="40" as="geometry" />
        </mxCell>
        <mxCell id="JbZAOQ8Al6Ymb8Nan_qz-64" value="output_show(new_txt)" style="rounded=1;whiteSpace=wrap;html=1;fontSize=12;glass=0;strokeWidth=1;shadow=0;" parent="WIyWlLk6GJQsqaUBKTNV-1" vertex="1">
          <mxGeometry x="1580" y="880" width="180" height="40" as="geometry" />
        </mxCell>
        <mxCell id="JbZAOQ8Al6Ymb8Nan_qz-70" style="edgeStyle=orthogonalEdgeStyle;rounded=0;orthogonalLoop=1;jettySize=auto;html=1;" parent="WIyWlLk6GJQsqaUBKTNV-1" source="JbZAOQ8Al6Ymb8Nan_qz-69" edge="1">
          <mxGeometry relative="1" as="geometry">
            <mxPoint x="2115" y="349.9999999999998" as="targetPoint" />
          </mxGeometry>
        </mxCell>
        <mxCell id="JbZAOQ8Al6Ymb8Nan_qz-69" value="current_txt = read_output()" style="rounded=1;whiteSpace=wrap;html=1;fontSize=12;glass=0;strokeWidth=1;shadow=0;" parent="WIyWlLk6GJQsqaUBKTNV-1" vertex="1">
          <mxGeometry x="2030" y="270" width="170" height="40" as="geometry" />
        </mxCell>
        <mxCell id="JbZAOQ8Al6Ymb8Nan_qz-73" style="edgeStyle=orthogonalEdgeStyle;rounded=0;orthogonalLoop=1;jettySize=auto;html=1;" parent="WIyWlLk6GJQsqaUBKTNV-1" source="JbZAOQ8Al6Ymb8Nan_qz-72" edge="1">
          <mxGeometry relative="1" as="geometry">
            <mxPoint x="2280" y="460" as="targetPoint" />
          </mxGeometry>
        </mxCell>
        <mxCell id="JbZAOQ8Al6Ymb8Nan_qz-78" value="False" style="edgeLabel;html=1;align=center;verticalAlign=middle;resizable=0;points=[];" parent="JbZAOQ8Al6Ymb8Nan_qz-73" vertex="1" connectable="0">
          <mxGeometry x="-0.1303" y="4" relative="1" as="geometry">
            <mxPoint as="offset" />
          </mxGeometry>
        </mxCell>
        <mxCell id="JbZAOQ8Al6Ymb8Nan_qz-75" style="edgeStyle=orthogonalEdgeStyle;rounded=0;orthogonalLoop=1;jettySize=auto;html=1;" parent="WIyWlLk6GJQsqaUBKTNV-1" source="JbZAOQ8Al6Ymb8Nan_qz-72" edge="1">
          <mxGeometry relative="1" as="geometry">
            <mxPoint x="1950" y="460" as="targetPoint" />
            <Array as="points">
              <mxPoint x="1950" y="398" />
              <mxPoint x="1950" y="450" />
            </Array>
          </mxGeometry>
        </mxCell>
        <mxCell id="JbZAOQ8Al6Ymb8Nan_qz-76" value="True" style="edgeLabel;html=1;align=center;verticalAlign=middle;resizable=0;points=[];" parent="JbZAOQ8Al6Ymb8Nan_qz-75" vertex="1" connectable="0">
          <mxGeometry x="-0.7366" y="2" relative="1" as="geometry">
            <mxPoint as="offset" />
          </mxGeometry>
        </mxCell>
        <mxCell id="JbZAOQ8Al6Ymb8Nan_qz-72" value="current_txt == &quot;&quot;&lt;br&gt;or&lt;br&gt;current_txt[-1] in operator" style="rhombus;whiteSpace=wrap;html=1;shadow=0;fontFamily=Helvetica;fontSize=12;align=center;strokeWidth=1;spacing=6;spacingTop=-4;" parent="WIyWlLk6GJQsqaUBKTNV-1" vertex="1">
          <mxGeometry x="1980" y="346" width="270" height="105" as="geometry" />
        </mxCell>
        <mxCell id="JbZAOQ8Al6Ymb8Nan_qz-77" value="pass" style="rounded=1;whiteSpace=wrap;html=1;fontSize=12;glass=0;strokeWidth=1;shadow=0;" parent="WIyWlLk6GJQsqaUBKTNV-1" vertex="1">
          <mxGeometry x="1910" y="460" width="90" height="40" as="geometry" />
        </mxCell>
        <mxCell id="JbZAOQ8Al6Ymb8Nan_qz-80" style="edgeStyle=orthogonalEdgeStyle;rounded=0;orthogonalLoop=1;jettySize=auto;html=1;" parent="WIyWlLk6GJQsqaUBKTNV-1" source="JbZAOQ8Al6Ymb8Nan_qz-79" edge="1">
          <mxGeometry relative="1" as="geometry">
            <mxPoint x="2278" y="540" as="targetPoint" />
          </mxGeometry>
        </mxCell>
        <mxCell id="JbZAOQ8Al6Ymb8Nan_qz-79" value="new_txt = current_txt + &#39;+&#39;, &#39;-&#39;, &#39;*&#39;, &#39;/&#39;" style="rounded=1;whiteSpace=wrap;html=1;fontSize=12;glass=0;strokeWidth=1;shadow=0;" parent="WIyWlLk6GJQsqaUBKTNV-1" vertex="1">
          <mxGeometry x="2168" y="460" width="220" height="40" as="geometry" />
        </mxCell>
        <mxCell id="JbZAOQ8Al6Ymb8Nan_qz-81" value="output_show(new_txt)" style="rounded=1;whiteSpace=wrap;html=1;fontSize=12;glass=0;strokeWidth=1;shadow=0;" parent="WIyWlLk6GJQsqaUBKTNV-1" vertex="1">
          <mxGeometry x="2188" y="540" width="180" height="40" as="geometry" />
        </mxCell>
        <mxCell id="JbZAOQ8Al6Ymb8Nan_qz-87" style="edgeStyle=orthogonalEdgeStyle;rounded=0;orthogonalLoop=1;jettySize=auto;html=1;" parent="WIyWlLk6GJQsqaUBKTNV-1" source="JbZAOQ8Al6Ymb8Nan_qz-85" edge="1">
          <mxGeometry relative="1" as="geometry">
            <mxPoint x="2515" y="360" as="targetPoint" />
          </mxGeometry>
        </mxCell>
        <mxCell id="JbZAOQ8Al6Ymb8Nan_qz-85" value="current_txt = read_output()" style="rounded=1;whiteSpace=wrap;html=1;fontSize=12;glass=0;strokeWidth=1;shadow=0;" parent="WIyWlLk6GJQsqaUBKTNV-1" vertex="1">
          <mxGeometry x="2430" y="283" width="170" height="40" as="geometry" />
        </mxCell>
        <mxCell id="JbZAOQ8Al6Ymb8Nan_qz-89" style="edgeStyle=orthogonalEdgeStyle;rounded=0;orthogonalLoop=1;jettySize=auto;html=1;" parent="WIyWlLk6GJQsqaUBKTNV-1" source="JbZAOQ8Al6Ymb8Nan_qz-88" edge="1">
          <mxGeometry relative="1" as="geometry">
            <mxPoint x="2515" y="440" as="targetPoint" />
          </mxGeometry>
        </mxCell>
        <mxCell id="JbZAOQ8Al6Ymb8Nan_qz-88" value="new_txt = current_txt[:-1]" style="rounded=1;whiteSpace=wrap;html=1;fontSize=12;glass=0;strokeWidth=1;shadow=0;" parent="WIyWlLk6GJQsqaUBKTNV-1" vertex="1">
          <mxGeometry x="2430" y="363.5" width="170" height="40" as="geometry" />
        </mxCell>
        <mxCell id="JbZAOQ8Al6Ymb8Nan_qz-90" value="output_show(new_txt)" style="rounded=1;whiteSpace=wrap;html=1;fontSize=12;glass=0;strokeWidth=1;shadow=0;" parent="WIyWlLk6GJQsqaUBKTNV-1" vertex="1">
          <mxGeometry x="2430" y="440" width="170" height="40" as="geometry" />
        </mxCell>
        <mxCell id="JbZAOQ8Al6Ymb8Nan_qz-92" value="ouput_show()" style="rounded=1;whiteSpace=wrap;html=1;absoluteArcSize=1;arcSize=14;strokeWidth=2;" parent="WIyWlLk6GJQsqaUBKTNV-1" vertex="1">
          <mxGeometry x="161.25" y="30" width="117.5" height="50" as="geometry" />
        </mxCell>
        <mxCell id="JbZAOQ8Al6Ymb8Nan_qz-96" style="edgeStyle=orthogonalEdgeStyle;rounded=0;orthogonalLoop=1;jettySize=auto;html=1;entryX=0.5;entryY=0;entryDx=0;entryDy=0;" parent="WIyWlLk6GJQsqaUBKTNV-1" source="JbZAOQ8Al6Ymb8Nan_qz-94" target="JbZAOQ8Al6Ymb8Nan_qz-95" edge="1">
          <mxGeometry relative="1" as="geometry" />
        </mxCell>
        <mxCell id="JbZAOQ8Al6Ymb8Nan_qz-94" value="current_txt = read_output()" style="rounded=1;whiteSpace=wrap;html=1;fontSize=12;glass=0;strokeWidth=1;shadow=0;" parent="WIyWlLk6GJQsqaUBKTNV-1" vertex="1">
          <mxGeometry x="2835" y="270" width="170" height="40" as="geometry" />
        </mxCell>
        <mxCell id="JbZAOQ8Al6Ymb8Nan_qz-97" style="edgeStyle=orthogonalEdgeStyle;rounded=0;orthogonalLoop=1;jettySize=auto;html=1;" parent="WIyWlLk6GJQsqaUBKTNV-1" source="JbZAOQ8Al6Ymb8Nan_qz-95" edge="1">
          <mxGeometry relative="1" as="geometry">
            <mxPoint x="2740" y="470.0000000000002" as="targetPoint" />
          </mxGeometry>
        </mxCell>
        <mxCell id="JbZAOQ8Al6Ymb8Nan_qz-98" value="False" style="edgeLabel;html=1;align=center;verticalAlign=middle;resizable=0;points=[];" parent="JbZAOQ8Al6Ymb8Nan_qz-97" vertex="1" connectable="0">
          <mxGeometry x="-0.2205" y="-1" relative="1" as="geometry">
            <mxPoint as="offset" />
          </mxGeometry>
        </mxCell>
        <mxCell id="JbZAOQ8Al6Ymb8Nan_qz-100" style="edgeStyle=orthogonalEdgeStyle;rounded=0;orthogonalLoop=1;jettySize=auto;html=1;" parent="WIyWlLk6GJQsqaUBKTNV-1" source="JbZAOQ8Al6Ymb8Nan_qz-95" edge="1">
          <mxGeometry relative="1" as="geometry">
            <mxPoint x="3120" y="470.0000000000002" as="targetPoint" />
          </mxGeometry>
        </mxCell>
        <mxCell id="JbZAOQ8Al6Ymb8Nan_qz-101" value="True" style="edgeLabel;html=1;align=center;verticalAlign=middle;resizable=0;points=[];" parent="JbZAOQ8Al6Ymb8Nan_qz-100" vertex="1" connectable="0">
          <mxGeometry x="0.3009" y="1" relative="1" as="geometry">
            <mxPoint as="offset" />
          </mxGeometry>
        </mxCell>
        <mxCell id="JbZAOQ8Al6Ymb8Nan_qz-95" value="current_txt == &quot;&quot;&lt;br&gt;or&lt;br&gt;&#39;(&#39; in current_txt" style="rhombus;whiteSpace=wrap;html=1;shadow=0;fontFamily=Helvetica;fontSize=12;align=center;strokeWidth=1;spacing=6;spacingTop=-4;" parent="WIyWlLk6GJQsqaUBKTNV-1" vertex="1">
          <mxGeometry x="2785" y="355" width="270" height="105" as="geometry" />
        </mxCell>
        <mxCell id="JbZAOQ8Al6Ymb8Nan_qz-99" value="pass" style="rounded=1;whiteSpace=wrap;html=1;fontSize=12;glass=0;strokeWidth=1;shadow=0;" parent="WIyWlLk6GJQsqaUBKTNV-1" vertex="1">
          <mxGeometry x="2710" y="470" width="60" height="40" as="geometry" />
        </mxCell>
        <mxCell id="JbZAOQ8Al6Ymb8Nan_qz-103" style="edgeStyle=orthogonalEdgeStyle;rounded=0;orthogonalLoop=1;jettySize=auto;html=1;" parent="WIyWlLk6GJQsqaUBKTNV-1" source="JbZAOQ8Al6Ymb8Nan_qz-102" edge="1">
          <mxGeometry relative="1" as="geometry">
            <mxPoint x="3125" y="540" as="targetPoint" />
          </mxGeometry>
        </mxCell>
        <mxCell id="JbZAOQ8Al6Ymb8Nan_qz-102" value="new_txt = current_txt + &#39;(&#39;" style="rounded=1;whiteSpace=wrap;html=1;fontSize=12;glass=0;strokeWidth=1;shadow=0;" parent="WIyWlLk6GJQsqaUBKTNV-1" vertex="1">
          <mxGeometry x="3040" y="470" width="170" height="40" as="geometry" />
        </mxCell>
        <mxCell id="JbZAOQ8Al6Ymb8Nan_qz-105" style="edgeStyle=orthogonalEdgeStyle;rounded=0;orthogonalLoop=1;jettySize=auto;html=1;" parent="WIyWlLk6GJQsqaUBKTNV-1" source="JbZAOQ8Al6Ymb8Nan_qz-104" edge="1">
          <mxGeometry relative="1" as="geometry">
            <mxPoint x="3125" y="620" as="targetPoint" />
          </mxGeometry>
        </mxCell>
        <mxCell id="JbZAOQ8Al6Ymb8Nan_qz-104" value="output_show(new_txt)" style="rounded=1;whiteSpace=wrap;html=1;fontSize=12;glass=0;strokeWidth=1;shadow=0;" parent="WIyWlLk6GJQsqaUBKTNV-1" vertex="1">
          <mxGeometry x="3040" y="540" width="170" height="40" as="geometry" />
        </mxCell>
        <mxCell id="JbZAOQ8Al6Ymb8Nan_qz-107" style="edgeStyle=orthogonalEdgeStyle;rounded=0;orthogonalLoop=1;jettySize=auto;html=1;" parent="WIyWlLk6GJQsqaUBKTNV-1" source="JbZAOQ8Al6Ymb8Nan_qz-106" edge="1">
          <mxGeometry relative="1" as="geometry">
            <mxPoint x="3125" y="760" as="targetPoint" />
          </mxGeometry>
        </mxCell>
        <mxCell id="JbZAOQ8Al6Ymb8Nan_qz-106" value="&lt;div style=&quot;color: rgb(59, 59, 59); background-color: rgb(255, 255, 255); font-family: &amp;quot;Droid Sans Mono&amp;quot;, &amp;quot;monospace&amp;quot;, monospace; font-size: 14px; line-height: 19px;&quot;&gt;&lt;div&gt;            numbers &lt;span style=&quot;color: #000000;&quot;&gt;=&lt;/span&gt; &lt;span style=&quot;color: #267f99;&quot;&gt;re&lt;/span&gt;.&lt;span style=&quot;color: #795e26;&quot;&gt;findall&lt;/span&gt;(&lt;span style=&quot;color: #0000ff;&quot;&gt;r&lt;/span&gt;&lt;span style=&quot;color: #811f3f;&quot;&gt;&#39;\d&lt;/span&gt;&lt;span style=&quot;color: #000000;&quot;&gt;+&lt;/span&gt;&lt;span style=&quot;color: #811f3f;&quot;&gt;&#39;&lt;/span&gt;, &lt;span style=&quot;color: #001080;&quot;&gt;current_txt&lt;/span&gt;)&lt;/div&gt;&lt;div&gt;            &lt;span style=&quot;color: #001080;&quot;&gt;operators&lt;/span&gt; &lt;span style=&quot;color: #000000;&quot;&gt;=&lt;/span&gt; &lt;span style=&quot;color: #267f99;&quot;&gt;re&lt;/span&gt;.&lt;span style=&quot;color: #795e26;&quot;&gt;findall&lt;/span&gt;(&lt;span style=&quot;color: #0000ff;&quot;&gt;r&lt;/span&gt;&lt;span style=&quot;color: #811f3f;&quot;&gt;&#39;&lt;/span&gt;&lt;span style=&quot;color: #d16969;&quot;&gt;[&lt;/span&gt;&lt;span style=&quot;color: #811f3f;&quot;&gt;+&lt;/span&gt;&lt;span style=&quot;color: #ee0000;&quot;&gt;\-&lt;/span&gt;&lt;span style=&quot;color: #811f3f;&quot;&gt;*/&lt;/span&gt;&lt;span style=&quot;color: #d16969;&quot;&gt;]&lt;/span&gt;&lt;span style=&quot;color: #811f3f;&quot;&gt;&#39;&lt;/span&gt;, &lt;span style=&quot;color: #001080;&quot;&gt;current_txt&lt;/span&gt;)&lt;/div&gt;&lt;br&gt;&lt;div&gt;            &lt;span style=&quot;color: #001080;&quot;&gt;left_brace_count&lt;/span&gt; &lt;span style=&quot;color: #000000;&quot;&gt;=&lt;/span&gt; &lt;span style=&quot;color: #001080;&quot;&gt;current_txt&lt;/span&gt;.count(&lt;span style=&quot;color: #a31515;&quot;&gt;&#39;(&#39;&lt;/span&gt;)&lt;/div&gt;&lt;div&gt;            &lt;span style=&quot;color: #001080;&quot;&gt;right_brace_count&lt;/span&gt; &lt;span style=&quot;color: #000000;&quot;&gt;=&lt;/span&gt; &lt;span style=&quot;color: #001080;&quot;&gt;current_txt&lt;/span&gt;.count(&lt;span style=&quot;color: #a31515;&quot;&gt;&#39;)&#39;&lt;/span&gt;)&lt;/div&gt;&lt;/div&gt;" style="rounded=1;whiteSpace=wrap;html=1;absoluteArcSize=1;arcSize=14;strokeWidth=2;" parent="WIyWlLk6GJQsqaUBKTNV-1" vertex="1">
          <mxGeometry x="2895" y="620" width="460" height="100" as="geometry" />
        </mxCell>
        <mxCell id="JbZAOQ8Al6Ymb8Nan_qz-109" style="edgeStyle=orthogonalEdgeStyle;rounded=0;orthogonalLoop=1;jettySize=auto;html=1;" parent="WIyWlLk6GJQsqaUBKTNV-1" source="JbZAOQ8Al6Ymb8Nan_qz-108" edge="1">
          <mxGeometry relative="1" as="geometry">
            <mxPoint x="3360" y="870" as="targetPoint" />
          </mxGeometry>
        </mxCell>
        <mxCell id="JbZAOQ8Al6Ymb8Nan_qz-110" value="True" style="edgeLabel;html=1;align=center;verticalAlign=middle;resizable=0;points=[];" parent="JbZAOQ8Al6Ymb8Nan_qz-109" vertex="1" connectable="0">
          <mxGeometry x="0.1988" y="-2" relative="1" as="geometry">
            <mxPoint as="offset" />
          </mxGeometry>
        </mxCell>
        <mxCell id="JbZAOQ8Al6Ymb8Nan_qz-114" style="edgeStyle=orthogonalEdgeStyle;rounded=0;orthogonalLoop=1;jettySize=auto;html=1;" parent="WIyWlLk6GJQsqaUBKTNV-1" source="JbZAOQ8Al6Ymb8Nan_qz-108" edge="1">
          <mxGeometry relative="1" as="geometry">
            <mxPoint x="2890" y="870" as="targetPoint" />
          </mxGeometry>
        </mxCell>
        <mxCell id="JbZAOQ8Al6Ymb8Nan_qz-115" value="False" style="edgeLabel;html=1;align=center;verticalAlign=middle;resizable=0;points=[];" parent="JbZAOQ8Al6Ymb8Nan_qz-114" vertex="1" connectable="0">
          <mxGeometry x="-0.1608" y="-1" relative="1" as="geometry">
            <mxPoint as="offset" />
          </mxGeometry>
        </mxCell>
        <mxCell id="JbZAOQ8Al6Ymb8Nan_qz-108" value="len(numbers) &amp;gt; len(operators)&lt;br&gt;and&lt;br&gt;right_brace_count &amp;lt; left_brace_count" style="rhombus;whiteSpace=wrap;html=1;shadow=0;fontFamily=Helvetica;fontSize=12;align=center;strokeWidth=1;spacing=6;spacingTop=-4;" parent="WIyWlLk6GJQsqaUBKTNV-1" vertex="1">
          <mxGeometry x="2950" y="760" width="350" height="105" as="geometry" />
        </mxCell>
        <mxCell id="JbZAOQ8Al6Ymb8Nan_qz-112" style="edgeStyle=orthogonalEdgeStyle;rounded=0;orthogonalLoop=1;jettySize=auto;html=1;" parent="WIyWlLk6GJQsqaUBKTNV-1" source="JbZAOQ8Al6Ymb8Nan_qz-111" edge="1">
          <mxGeometry relative="1" as="geometry">
            <mxPoint x="3365" y="950" as="targetPoint" />
          </mxGeometry>
        </mxCell>
        <mxCell id="JbZAOQ8Al6Ymb8Nan_qz-111" value="new_txt = current_txt + &#39;)&#39;" style="rounded=1;whiteSpace=wrap;html=1;fontSize=12;glass=0;strokeWidth=1;shadow=0;" parent="WIyWlLk6GJQsqaUBKTNV-1" vertex="1">
          <mxGeometry x="3280" y="870" width="170" height="40" as="geometry" />
        </mxCell>
        <mxCell id="JbZAOQ8Al6Ymb8Nan_qz-113" value="output_show(new_txt)" style="rounded=1;whiteSpace=wrap;html=1;fontSize=12;glass=0;strokeWidth=1;shadow=0;" parent="WIyWlLk6GJQsqaUBKTNV-1" vertex="1">
          <mxGeometry x="3280" y="950" width="170" height="40" as="geometry" />
        </mxCell>
        <mxCell id="JbZAOQ8Al6Ymb8Nan_qz-117" style="edgeStyle=orthogonalEdgeStyle;rounded=0;orthogonalLoop=1;jettySize=auto;html=1;" parent="WIyWlLk6GJQsqaUBKTNV-1" source="JbZAOQ8Al6Ymb8Nan_qz-116" edge="1">
          <mxGeometry relative="1" as="geometry">
            <mxPoint x="2895" y="940" as="targetPoint" />
          </mxGeometry>
        </mxCell>
        <mxCell id="JbZAOQ8Al6Ymb8Nan_qz-116" value="new_txt = current_txt + &#39;(&#39;" style="rounded=1;whiteSpace=wrap;html=1;fontSize=12;glass=0;strokeWidth=1;shadow=0;" parent="WIyWlLk6GJQsqaUBKTNV-1" vertex="1">
          <mxGeometry x="2810" y="870" width="170" height="40" as="geometry" />
        </mxCell>
        <mxCell id="JbZAOQ8Al6Ymb8Nan_qz-118" value="output_show(new_txt)" style="rounded=1;whiteSpace=wrap;html=1;fontSize=12;glass=0;strokeWidth=1;shadow=0;" parent="WIyWlLk6GJQsqaUBKTNV-1" vertex="1">
          <mxGeometry x="2810" y="940" width="170" height="40" as="geometry" />
        </mxCell>
        <mxCell id="JbZAOQ8Al6Ymb8Nan_qz-124" style="edgeStyle=orthogonalEdgeStyle;rounded=0;orthogonalLoop=1;jettySize=auto;html=1;" parent="WIyWlLk6GJQsqaUBKTNV-1" source="JbZAOQ8Al6Ymb8Nan_qz-123" edge="1">
          <mxGeometry relative="1" as="geometry">
            <mxPoint x="650" y="430" as="targetPoint" />
          </mxGeometry>
        </mxCell>
        <mxCell id="JbZAOQ8Al6Ymb8Nan_qz-127" value="True" style="edgeLabel;html=1;align=center;verticalAlign=middle;resizable=0;points=[];" parent="JbZAOQ8Al6Ymb8Nan_qz-124" vertex="1" connectable="0">
          <mxGeometry x="0.2901" y="1" relative="1" as="geometry">
            <mxPoint as="offset" />
          </mxGeometry>
        </mxCell>
        <mxCell id="JbZAOQ8Al6Ymb8Nan_qz-128" style="edgeStyle=orthogonalEdgeStyle;rounded=0;orthogonalLoop=1;jettySize=auto;html=1;" parent="WIyWlLk6GJQsqaUBKTNV-1" source="JbZAOQ8Al6Ymb8Nan_qz-123" edge="1">
          <mxGeometry relative="1" as="geometry">
            <mxPoint x="470" y="430" as="targetPoint" />
          </mxGeometry>
        </mxCell>
        <mxCell id="JbZAOQ8Al6Ymb8Nan_qz-129" value="False" style="edgeLabel;html=1;align=center;verticalAlign=middle;resizable=0;points=[];" parent="JbZAOQ8Al6Ymb8Nan_qz-128" vertex="1" connectable="0">
          <mxGeometry x="-0.3469" relative="1" as="geometry">
            <mxPoint as="offset" />
          </mxGeometry>
        </mxCell>
        <mxCell id="JbZAOQ8Al6Ymb8Nan_qz-123" value="current_txt == &quot;&quot;" style="rhombus;whiteSpace=wrap;html=1;shadow=0;fontFamily=Helvetica;fontSize=12;align=center;strokeWidth=1;spacing=6;spacingTop=-4;" parent="WIyWlLk6GJQsqaUBKTNV-1" vertex="1">
          <mxGeometry x="505" y="355" width="110" height="70" as="geometry" />
        </mxCell>
        <mxCell id="JbZAOQ8Al6Ymb8Nan_qz-135" value="output_show(enter fomula)" style="rounded=1;whiteSpace=wrap;html=1;fontSize=12;glass=0;strokeWidth=1;shadow=0;" parent="WIyWlLk6GJQsqaUBKTNV-1" vertex="1">
          <mxGeometry x="560" y="428.5" width="157" height="43" as="geometry" />
        </mxCell>
        <mxCell id="JbZAOQ8Al6Ymb8Nan_qz-138" style="edgeStyle=orthogonalEdgeStyle;rounded=0;orthogonalLoop=1;jettySize=auto;html=1;" parent="WIyWlLk6GJQsqaUBKTNV-1" source="JbZAOQ8Al6Ymb8Nan_qz-137" edge="1">
          <mxGeometry relative="1" as="geometry">
            <mxPoint x="474" y="700" as="targetPoint" />
          </mxGeometry>
        </mxCell>
        <mxCell id="JbZAOQ8Al6Ymb8Nan_qz-139" value="True" style="edgeLabel;html=1;align=center;verticalAlign=middle;resizable=0;points=[];" parent="JbZAOQ8Al6Ymb8Nan_qz-138" vertex="1" connectable="0">
          <mxGeometry x="0.133" y="3" relative="1" as="geometry">
            <mxPoint as="offset" />
          </mxGeometry>
        </mxCell>
        <mxCell id="JbZAOQ8Al6Ymb8Nan_qz-137" value="len(result) &amp;gt; 25" style="rhombus;whiteSpace=wrap;html=1;shadow=0;fontFamily=Helvetica;fontSize=12;align=center;strokeWidth=1;spacing=6;spacingTop=-4;" parent="WIyWlLk6GJQsqaUBKTNV-1" vertex="1">
          <mxGeometry x="419" y="590" width="110" height="70" as="geometry" />
        </mxCell>
        <mxCell id="JbZAOQ8Al6Ymb8Nan_qz-141" style="edgeStyle=orthogonalEdgeStyle;rounded=0;orthogonalLoop=1;jettySize=auto;html=1;" parent="WIyWlLk6GJQsqaUBKTNV-1" source="JbZAOQ8Al6Ymb8Nan_qz-140" edge="1">
          <mxGeometry relative="1" as="geometry">
            <mxPoint x="474" y="780" as="targetPoint" />
          </mxGeometry>
        </mxCell>
        <mxCell id="JbZAOQ8Al6Ymb8Nan_qz-140" value="result = result[:25]" style="rounded=1;whiteSpace=wrap;html=1;fontSize=12;glass=0;strokeWidth=1;shadow=0;" parent="WIyWlLk6GJQsqaUBKTNV-1" vertex="1">
          <mxGeometry x="414" y="700" width="120" height="43" as="geometry" />
        </mxCell>
        <mxCell id="JbZAOQ8Al6Ymb8Nan_qz-142" value="output_show(result)" style="rounded=1;whiteSpace=wrap;html=1;fontSize=12;glass=0;strokeWidth=1;shadow=0;" parent="WIyWlLk6GJQsqaUBKTNV-1" vertex="1">
          <mxGeometry x="409" y="790" width="120" height="40" as="geometry" />
        </mxCell>
        <mxCell id="JbZAOQ8Al6Ymb8Nan_qz-150" style="edgeStyle=orthogonalEdgeStyle;rounded=0;orthogonalLoop=1;jettySize=auto;html=1;" parent="WIyWlLk6GJQsqaUBKTNV-1" source="JbZAOQ8Al6Ymb8Nan_qz-146" edge="1">
          <mxGeometry relative="1" as="geometry">
            <mxPoint x="79.99999999999977" y="670" as="targetPoint" />
          </mxGeometry>
        </mxCell>
        <mxCell id="JbZAOQ8Al6Ymb8Nan_qz-155" value="True" style="edgeLabel;html=1;align=center;verticalAlign=middle;resizable=0;points=[];" parent="JbZAOQ8Al6Ymb8Nan_qz-150" vertex="1" connectable="0">
          <mxGeometry x="-0.0606" y="1" relative="1" as="geometry">
            <mxPoint as="offset" />
          </mxGeometry>
        </mxCell>
        <mxCell id="JbZAOQ8Al6Ymb8Nan_qz-146" value="&lt;div style=&quot;color: rgb(59, 59, 59); background-color: rgb(255, 255, 255); font-family: &amp;quot;Droid Sans Mono&amp;quot;, &amp;quot;monospace&amp;quot;, monospace; font-size: 14px; line-height: 19px;&quot;&gt;if &lt;span style=&quot;color: #a31515;&quot;&gt;&#39;%&#39;&lt;/span&gt; &lt;span style=&quot;color: #0000ff;&quot;&gt;in&lt;/span&gt; &lt;span style=&quot;color: #001080;&quot;&gt;formula&lt;/span&gt;&lt;/div&gt;" style="rhombus;whiteSpace=wrap;html=1;shadow=0;fontFamily=Helvetica;fontSize=12;align=center;strokeWidth=1;spacing=6;spacingTop=-4;" parent="WIyWlLk6GJQsqaUBKTNV-1" vertex="1">
          <mxGeometry x="105" y="590" width="205" height="60" as="geometry" />
        </mxCell>
        <mxCell id="JbZAOQ8Al6Ymb8Nan_qz-151" style="edgeStyle=orthogonalEdgeStyle;rounded=0;orthogonalLoop=1;jettySize=auto;html=1;" parent="WIyWlLk6GJQsqaUBKTNV-1" source="JbZAOQ8Al6Ymb8Nan_qz-149" edge="1">
          <mxGeometry relative="1" as="geometry">
            <mxPoint x="85" y="770" as="targetPoint" />
          </mxGeometry>
        </mxCell>
        <mxCell id="JbZAOQ8Al6Ymb8Nan_qz-149" value="&lt;div style=&quot;color: rgb(59, 59, 59); background-color: rgb(255, 255, 255); font-family: &amp;quot;Droid Sans Mono&amp;quot;, &amp;quot;monospace&amp;quot;, monospace; font-size: 14px; line-height: 19px;&quot;&gt;formula &lt;span style=&quot;color: #000000;&quot;&gt;=&lt;/span&gt; &lt;span style=&quot;color: #001080;&quot;&gt;formula&lt;/span&gt;.replace(&lt;span style=&quot;color: #a31515;&quot;&gt;&#39;%&#39;&lt;/span&gt;, &lt;span style=&quot;color: #a31515;&quot;&gt;&#39;*0.01&#39;&lt;/span&gt;)&lt;/div&gt;" style="rounded=1;whiteSpace=wrap;html=1;fontSize=12;glass=0;strokeWidth=1;shadow=0;" parent="WIyWlLk6GJQsqaUBKTNV-1" vertex="1">
          <mxGeometry x="-100" y="678.5" width="370" height="43" as="geometry" />
        </mxCell>
        <mxCell id="JbZAOQ8Al6Ymb8Nan_qz-153" style="edgeStyle=orthogonalEdgeStyle;rounded=0;orthogonalLoop=1;jettySize=auto;html=1;" parent="WIyWlLk6GJQsqaUBKTNV-1" source="JbZAOQ8Al6Ymb8Nan_qz-152" edge="1">
          <mxGeometry relative="1" as="geometry">
            <mxPoint x="-100" y="870" as="targetPoint" />
          </mxGeometry>
        </mxCell>
        <mxCell id="JbZAOQ8Al6Ymb8Nan_qz-156" value="True" style="edgeLabel;html=1;align=center;verticalAlign=middle;resizable=0;points=[];" parent="JbZAOQ8Al6Ymb8Nan_qz-153" vertex="1" connectable="0">
          <mxGeometry x="-0.509" y="-1" relative="1" as="geometry">
            <mxPoint as="offset" />
          </mxGeometry>
        </mxCell>
        <mxCell id="JbZAOQ8Al6Ymb8Nan_qz-152" value="&lt;div style=&quot;color: rgb(59, 59, 59); background-color: rgb(255, 255, 255); font-family: &amp;quot;Droid Sans Mono&amp;quot;, &amp;quot;monospace&amp;quot;, monospace; font-size: 14px; line-height: 19px;&quot;&gt;if &lt;span style=&quot;color: #a31515;&quot;&gt;&#39;)(&#39;&lt;/span&gt; &lt;span style=&quot;color: #0000ff;&quot;&gt;in&lt;/span&gt; &lt;span style=&quot;color: #001080;&quot;&gt;formula&lt;/span&gt;&lt;/div&gt;" style="rhombus;whiteSpace=wrap;html=1;shadow=0;fontFamily=Helvetica;fontSize=12;align=center;strokeWidth=1;spacing=6;spacingTop=-4;" parent="WIyWlLk6GJQsqaUBKTNV-1" vertex="1">
          <mxGeometry x="-53.75" y="770" width="277.5" height="60" as="geometry" />
        </mxCell>
        <mxCell id="JbZAOQ8Al6Ymb8Nan_qz-158" style="edgeStyle=orthogonalEdgeStyle;rounded=0;orthogonalLoop=1;jettySize=auto;html=1;" parent="WIyWlLk6GJQsqaUBKTNV-1" source="JbZAOQ8Al6Ymb8Nan_qz-157" edge="1">
          <mxGeometry relative="1" as="geometry">
            <mxPoint x="-80" y="960" as="targetPoint" />
          </mxGeometry>
        </mxCell>
        <mxCell id="JbZAOQ8Al6Ymb8Nan_qz-157" value="&lt;div style=&quot;color: rgb(59, 59, 59); background-color: rgb(255, 255, 255); font-family: &amp;quot;Droid Sans Mono&amp;quot;, &amp;quot;monospace&amp;quot;, monospace; font-size: 14px; line-height: 19px;&quot;&gt;&lt;div style=&quot;line-height: 19px;&quot;&gt;formula &lt;span style=&quot;color: #000000;&quot;&gt;=&lt;/span&gt; &lt;span style=&quot;color: #001080;&quot;&gt;formula&lt;/span&gt;.replace(&lt;span style=&quot;color: #a31515;&quot;&gt;&#39;)(&#39;&lt;/span&gt;, &lt;span style=&quot;color: #a31515;&quot;&gt;&#39;)*(&#39;&lt;/span&gt;)&lt;/div&gt;&lt;/div&gt;" style="rounded=1;whiteSpace=wrap;html=1;fontSize=12;glass=0;strokeWidth=1;shadow=0;" parent="WIyWlLk6GJQsqaUBKTNV-1" vertex="1">
          <mxGeometry x="-265" y="870" width="370" height="43" as="geometry" />
        </mxCell>
        <mxCell id="JbZAOQ8Al6Ymb8Nan_qz-172" style="edgeStyle=orthogonalEdgeStyle;rounded=0;orthogonalLoop=1;jettySize=auto;html=1;" parent="WIyWlLk6GJQsqaUBKTNV-1" source="JbZAOQ8Al6Ymb8Nan_qz-159" edge="1">
          <mxGeometry relative="1" as="geometry">
            <mxPoint x="-80" y="1040" as="targetPoint" />
          </mxGeometry>
        </mxCell>
        <mxCell id="JbZAOQ8Al6Ymb8Nan_qz-159" value="result&amp;nbsp; = eval(formula)" style="rounded=1;whiteSpace=wrap;html=1;fontSize=12;glass=0;strokeWidth=1;shadow=0;" parent="WIyWlLk6GJQsqaUBKTNV-1" vertex="1">
          <mxGeometry x="-180" y="960" width="200" height="40" as="geometry" />
        </mxCell>
        <mxCell id="JbZAOQ8Al6Ymb8Nan_qz-164" style="edgeStyle=orthogonalEdgeStyle;rounded=0;orthogonalLoop=1;jettySize=auto;html=1;" parent="WIyWlLk6GJQsqaUBKTNV-1" source="JbZAOQ8Al6Ymb8Nan_qz-161" edge="1">
          <mxGeometry relative="1" as="geometry">
            <mxPoint x="110" y="990" as="targetPoint" />
          </mxGeometry>
        </mxCell>
        <mxCell id="JbZAOQ8Al6Ymb8Nan_qz-165" value="False" style="edgeLabel;html=1;align=center;verticalAlign=middle;resizable=0;points=[];" parent="JbZAOQ8Al6Ymb8Nan_qz-164" vertex="1" connectable="0">
          <mxGeometry x="-0.3372" y="-3" relative="1" as="geometry">
            <mxPoint as="offset" />
          </mxGeometry>
        </mxCell>
        <mxCell id="JbZAOQ8Al6Ymb8Nan_qz-166" style="edgeStyle=orthogonalEdgeStyle;rounded=0;orthogonalLoop=1;jettySize=auto;html=1;" parent="WIyWlLk6GJQsqaUBKTNV-1" source="JbZAOQ8Al6Ymb8Nan_qz-161" edge="1">
          <mxGeometry relative="1" as="geometry">
            <mxPoint x="380" y="1000" as="targetPoint" />
          </mxGeometry>
        </mxCell>
        <mxCell id="JbZAOQ8Al6Ymb8Nan_qz-167" value="True" style="edgeLabel;html=1;align=center;verticalAlign=middle;resizable=0;points=[];" parent="JbZAOQ8Al6Ymb8Nan_qz-166" vertex="1" connectable="0">
          <mxGeometry x="-0.3085" relative="1" as="geometry">
            <mxPoint as="offset" />
          </mxGeometry>
        </mxCell>
        <mxCell id="JbZAOQ8Al6Ymb8Nan_qz-161" value="&lt;div style=&quot;background-color: rgb(255, 255, 255); font-family: &amp;quot;Droid Sans Mono&amp;quot;, &amp;quot;monospace&amp;quot;, monospace; font-size: 14px; line-height: 19px;&quot;&gt;&lt;span style=&quot;color: rgb(59, 59, 59);&quot;&gt;if &lt;/span&gt;&lt;font color=&quot;#a31515&quot;&gt;error exist&lt;/font&gt;&lt;/div&gt;" style="rhombus;whiteSpace=wrap;html=1;shadow=0;fontFamily=Helvetica;fontSize=12;align=center;strokeWidth=1;spacing=6;spacingTop=-4;" parent="WIyWlLk6GJQsqaUBKTNV-1" vertex="1">
          <mxGeometry x="147.5" y="1010" width="192.5" height="60" as="geometry" />
        </mxCell>
        <mxCell id="JbZAOQ8Al6Ymb8Nan_qz-170" style="edgeStyle=orthogonalEdgeStyle;rounded=0;orthogonalLoop=1;jettySize=auto;html=1;" parent="WIyWlLk6GJQsqaUBKTNV-1" source="JbZAOQ8Al6Ymb8Nan_qz-168" edge="1">
          <mxGeometry relative="1" as="geometry">
            <mxPoint x="470" y="570" as="targetPoint" />
            <Array as="points">
              <mxPoint x="110" y="920" />
              <mxPoint x="361" y="920" />
              <mxPoint x="361" y="570" />
            </Array>
          </mxGeometry>
        </mxCell>
        <mxCell id="JbZAOQ8Al6Ymb8Nan_qz-171" value="result" style="edgeLabel;html=1;align=center;verticalAlign=middle;resizable=0;points=[];" parent="JbZAOQ8Al6Ymb8Nan_qz-170" vertex="1" connectable="0">
          <mxGeometry x="0.668" y="-1" relative="1" as="geometry">
            <mxPoint as="offset" />
          </mxGeometry>
        </mxCell>
        <mxCell id="JbZAOQ8Al6Ymb8Nan_qz-168" value="&lt;div style=&quot;color: rgb(59, 59, 59); background-color: rgb(255, 255, 255); font-family: &amp;quot;Droid Sans Mono&amp;quot;, &amp;quot;monospace&amp;quot;, monospace; font-size: 14px; line-height: 19px;&quot;&gt;return &lt;span style=&quot;color: #001080;&quot;&gt;result&lt;/span&gt;&lt;/div&gt;" style="rounded=1;whiteSpace=wrap;html=1;fontSize=12;glass=0;strokeWidth=1;shadow=0;" parent="WIyWlLk6GJQsqaUBKTNV-1" vertex="1">
          <mxGeometry x="50" y="950" width="120" height="40" as="geometry" />
        </mxCell>
        <mxCell id="JbZAOQ8Al6Ymb8Nan_qz-169" value="output_show(error)" style="rounded=1;whiteSpace=wrap;html=1;fontSize=12;glass=0;strokeWidth=1;shadow=0;" parent="WIyWlLk6GJQsqaUBKTNV-1" vertex="1">
          <mxGeometry x="320" y="960" width="120" height="40" as="geometry" />
        </mxCell>
        <mxCell id="JbZAOQ8Al6Ymb8Nan_qz-175" style="edgeStyle=orthogonalEdgeStyle;rounded=0;orthogonalLoop=1;jettySize=auto;html=1;" parent="WIyWlLk6GJQsqaUBKTNV-1" source="JbZAOQ8Al6Ymb8Nan_qz-173" edge="1">
          <mxGeometry relative="1" as="geometry">
            <mxPoint x="-80" y="1140" as="targetPoint" />
          </mxGeometry>
        </mxCell>
        <mxCell id="JbZAOQ8Al6Ymb8Nan_qz-176" value="True" style="edgeLabel;html=1;align=center;verticalAlign=middle;resizable=0;points=[];" parent="JbZAOQ8Al6Ymb8Nan_qz-175" vertex="1" connectable="0">
          <mxGeometry x="-0.16" relative="1" as="geometry">
            <mxPoint as="offset" />
          </mxGeometry>
        </mxCell>
        <mxCell id="JbZAOQ8Al6Ymb8Nan_qz-173" value="&lt;div style=&quot;color: rgb(59, 59, 59); background-color: rgb(255, 255, 255); font-family: &amp;quot;Droid Sans Mono&amp;quot;, &amp;quot;monospace&amp;quot;, monospace; font-size: 14px; line-height: 19px;&quot;&gt;if &lt;span style=&quot;color: #a31515;&quot;&gt;&#39;()&#39;&lt;/span&gt; &lt;span style=&quot;color: #0000ff;&quot;&gt;in&lt;/span&gt; &lt;span style=&quot;color: #001080;&quot;&gt;formula&lt;/span&gt;&lt;/div&gt;" style="rhombus;whiteSpace=wrap;html=1;shadow=0;fontFamily=Helvetica;fontSize=12;align=center;strokeWidth=1;spacing=6;spacingTop=-4;" parent="WIyWlLk6GJQsqaUBKTNV-1" vertex="1">
          <mxGeometry x="-218.75" y="1040" width="277.5" height="60" as="geometry" />
        </mxCell>
        <mxCell id="JbZAOQ8Al6Ymb8Nan_qz-178" style="edgeStyle=orthogonalEdgeStyle;rounded=0;orthogonalLoop=1;jettySize=auto;html=1;entryX=0.5;entryY=1;entryDx=0;entryDy=0;" parent="WIyWlLk6GJQsqaUBKTNV-1" source="JbZAOQ8Al6Ymb8Nan_qz-177" target="JbZAOQ8Al6Ymb8Nan_qz-161" edge="1">
          <mxGeometry relative="1" as="geometry" />
        </mxCell>
        <mxCell id="JbZAOQ8Al6Ymb8Nan_qz-177" value="&lt;div style=&quot;color: rgb(59, 59, 59); background-color: rgb(255, 255, 255); font-family: &amp;quot;Droid Sans Mono&amp;quot;, &amp;quot;monospace&amp;quot;, monospace; font-size: 14px; line-height: 19px;&quot;&gt;formula &lt;span style=&quot;color: #000000;&quot;&gt;=&lt;/span&gt; &lt;span style=&quot;color: #001080;&quot;&gt;formula&lt;/span&gt;.replace(&lt;span style=&quot;color: #a31515;&quot;&gt;&#39;()&#39;&lt;/span&gt;, &lt;span style=&quot;color: #a31515;&quot;&gt;&#39;(0)&#39;&lt;/span&gt;)&lt;/div&gt;" style="rounded=1;whiteSpace=wrap;html=1;fontSize=12;glass=0;strokeWidth=1;shadow=0;" parent="WIyWlLk6GJQsqaUBKTNV-1" vertex="1">
          <mxGeometry x="-255" y="1140" width="350" height="40" as="geometry" />
        </mxCell>
      </root>
    </mxGraphModel>
  </diagram>
</mxfile>
